<svg xmlns="http://www.w3.org/2000/svg" viewBox="0 0 379 66"><path fill="#ef5e14" fill-rule="evenodd" d="M181.381 51.613V0h-14.337v57.008c0 2.385.942 4.672 2.62 6.358a8.91 8.91 0 0 0 6.32 2.634h51.614V51.613h-46.217Zm-86.02-48.96-11.52 11.656a9.02 9.02 0 0 0-2.604 6.339v24.637a9.022 9.022 0 0 0 2.603 6.34L95.361 63.28a8.904 8.904 0 0 0 6.336 2.653h53.313v-14.32h-51.145l-8.47-8.564v-3.721h59.615V26.605H95.394v-3.72l8.471-8.565h51.145V0h-53.313a8.905 8.905 0 0 0-6.336 2.653M64.811 0H0v14.32h59.224L3.665 43.002a6.729 6.729 0 0 0-2.661 2.486 6.785 6.785 0 0 0-.982 3.516v7.936c0 2.385.942 4.672 2.619 6.358a8.913 8.913 0 0 0 6.321 2.634h64.811v-14.32H14.549L70.108 22.93a6.705 6.705 0 0 0 2.66-2.486 6.763 6.763 0 0 0 .982-3.516V8.992a9.015 9.015 0 0 0-2.618-6.358A8.91 8.91 0 0 0 64.811 0m310.255 12.993-8.94-8.992a13.417 13.417 0 0 0-4.356-2.936 13.335 13.335 0 0 0-5.142-1.03h-33.221c-1.765 0-3.513.35-5.143 1.03a13.417 13.417 0 0 0-4.356 2.936l-8.94 8.992a13.53 13.53 0 0 0-3.91 9.52V43.42a13.53 13.53 0 0 0 3.91 9.52l8.94 8.992a13.401 13.401 0 0 0 4.356 2.936 13.341 13.341 0 0 0 5.143 1.032h33.232a13.39 13.39 0 0 0 9.498-3.968l8.94-8.992a13.53 13.53 0 0 0 3.91-9.52V22.56a13.566 13.566 0 0 0-1.012-5.177 13.501 13.501 0 0 0-2.91-4.389ZM364.83 43.048l-8.492 8.565H323.73l-8.482-8.565V22.884l8.482-8.565h32.584l8.493 8.565.022 20.164Zm-114.48 8.565V0h-14.302v57.008c0 2.385.942 4.672 2.618 6.358a8.913 8.913 0 0 0 6.32 2.634h51.616V51.613H250.35Z"></path></svg>